<svg width="38" height="29" viewBox="0 0 38 29" fill="none" xmlns="http://www.w3.org/2000/svg">
<path d="M35.2 1H2.8C1.80592 1 1 1.80585 1 2.8V26.8C1 27.7941 1.80585 28.6 2.8 28.6H35.2C36.1941 28.6 37 27.7941 37 26.8V2.8C37 1.80592 36.1941 1 35.2 1ZM35.8 26.8C35.8 27.1314 35.5314 27.4 35.2 27.4H2.8C2.46862 27.4 2.20002 27.1314 2.20002 26.8V2.8C2.20002 2.46862 2.46862 2.20002 2.8 2.20002H35.2C35.5314 2.20002 35.8 2.46862 35.8 2.8V26.8Z" fill="white" stroke="white" stroke-width="0.5"/>
<path d="M34.0524 3.40259C33.8938 3.38873 33.7363 3.43844 33.6144 3.54082L19.7724 15.1688C19.3259 15.544 18.6744 15.544 18.2279 15.1688L4.38601 3.54075C4.22183 3.40294 3.99655 3.36314 3.7951 3.43641C3.59366 3.50967 3.44656 3.68489 3.4093 3.89604C3.37203 4.10719 3.45022 4.32213 3.6144 4.45994L17.4564 16.0873C18.3485 16.8385 19.6518 16.8385 20.544 16.0873L34.386 4.46001C34.5079 4.35771 34.5841 4.21118 34.598 4.05262C34.6118 3.89407 34.5621 3.7365 34.4597 3.61465C34.3575 3.49266 34.211 3.41644 34.0524 3.40259Z" fill="white" stroke="white" stroke-width="0.5"/>
<path d="M12.54 16.0047C12.3275 15.9573 12.1062 16.0286 11.9614 16.191L3.56134 25.191C3.40932 25.3467 3.3535 25.5725 3.41551 25.781C3.47753 25.9897 3.64761 26.1483 3.85996 26.1957C4.07237 26.2431 4.29371 26.1718 4.43856 26.0093L12.8386 17.0093C12.9906 16.8537 13.0464 16.6278 12.9844 16.4193C12.9224 16.2107 12.7524 16.052 12.54 16.0047Z" fill="white" stroke="white" stroke-width="0.5"/>
<path d="M26.0394 16.191C25.8946 16.0286 25.6732 15.9573 25.4608 16.0047C25.2484 16.052 25.0784 16.2107 25.0163 16.4193C24.9543 16.6279 25.0102 16.8537 25.1622 17.0093L33.5622 26.0093C33.79 26.2426 34.1624 26.2514 34.4008 26.0289C34.6392 25.8064 34.6564 25.4343 34.4394 25.1909L26.0394 16.191Z" fill="white" stroke="white" stroke-width="0.5"/>
</svg>
