<svg width="35" height="34" viewBox="0 0 35 34" fill="white" xmlns="http://www.w3.org/2000/svg">
<path d="M11.9264 23.2148C13.2794 25.1224 14.6301 26.8285 15.5253 27.9273C15.6556 28.0872 15.7777 28.2356 15.896 28.3785H13.1945C12.8921 28.3785 12.647 28.6236 12.647 28.9259C12.647 29.2283 12.8921 29.4734 13.1945 29.4734H21.9548C22.2572 29.4734 22.5023 29.2283 22.5023 28.9259C22.5023 28.6236 22.2572 28.3785 21.9548 28.3785H19.2533C19.3716 28.2356 19.4937 28.0872 19.6246 27.9273C20.5192 26.8323 21.8694 25.1224 23.2229 23.2148C24.5657 21.3602 25.7744 19.4121 26.8398 17.3854C27.9578 15.1898 28.5251 13.3672 28.5251 11.9677C28.5288 9.0598 27.3749 6.27002 25.3182 4.21425C25.1809 4.07181 24.9773 4.01457 24.7859 4.06456C24.5944 4.11454 24.4448 4.26391 24.3946 4.45531C24.3443 4.6467 24.4012 4.85029 24.5435 4.98786C26.3947 6.83856 27.4333 9.34995 27.43 11.9677C27.43 13.193 26.9033 14.8487 25.8641 16.8882C24.8228 18.868 23.6415 20.7709 22.3294 22.5825C20.9945 24.4654 19.6602 26.1523 18.776 27.2364C18.482 27.5966 18.2175 27.9153 17.9919 28.1847C17.8866 28.3049 17.7345 28.3738 17.5747 28.3738C17.4149 28.3738 17.2628 28.3049 17.1575 28.1847C16.9319 27.9153 16.6675 27.5966 16.3735 27.2364C15.4892 26.1528 14.1549 24.4659 12.8201 22.5825C11.5079 20.7709 10.3266 18.868 9.2853 16.8882C8.24503 14.8487 7.71941 13.193 7.71941 11.9677C7.71909 8.00183 10.0908 4.4204 13.7422 2.8728C16.1956 1.84402 18.9595 1.84402 21.4129 2.8728C21.5931 2.94915 21.8003 2.92368 21.9565 2.80581C22.1127 2.68801 22.1942 2.49578 22.1703 2.30156C22.1464 2.10734 22.0207 1.94065 21.8405 1.86429C16.2649 -0.487394 9.83851 2.12492 7.48509 7.69975C6.91436 9.05012 6.62165 10.5017 6.62441 11.9677C6.62441 13.3671 7.19167 15.1898 8.3097 17.3881C9.37493 19.4139 10.5837 21.3611 11.9264 23.2148Z" fill-opacity="1" stroke-opacity="1" fill="white" stroke="white" stroke-width="0.5"/>
<path d="M17.5736 7.0253C17.876 7.0253 18.1211 6.7802 18.1211 6.4778C18.1211 6.1754 17.876 5.9303 17.5736 5.9303C14.9616 5.93023 12.7132 7.77542 12.2035 10.3373C11.6939 12.8992 13.065 15.4643 15.4782 16.4639C17.8914 17.4636 20.6747 16.6193 22.126 14.4474C23.5772 12.2756 23.2921 9.38103 21.4451 7.53398C21.3076 7.39166 21.1041 7.33456 20.9126 7.38467C20.7213 7.43478 20.5718 7.58428 20.5216 7.77568C20.4715 7.96714 20.5286 8.17066 20.6709 8.30816C22.1486 9.78576 22.3767 12.1013 21.2158 13.8388C20.0549 15.5764 17.8283 16.2519 15.8977 15.4523C13.9671 14.6527 12.8702 12.6006 13.2778 10.5511C13.6853 8.50155 15.484 7.02536 17.5736 7.0253Z" fill-opacity="1" stroke-opacity="1" fill="white" stroke="white" stroke-width="0.5"/>
<path d="M33.7934 30.8806L30.4262 24.8579C30.1217 24.3228 29.552 23.9939 28.9364 23.9977H25.0342C24.7318 23.9977 24.4867 24.2428 24.4867 24.5452C24.4867 24.8476 24.7318 25.0927 25.0342 25.0927H28.9364C29.1556 25.0885 29.3601 25.2028 29.4713 25.3916L32.8375 31.4144C32.9292 31.5711 32.9272 31.7654 32.8325 31.9203C32.7207 32.1051 32.5185 32.2158 32.3025 32.2105H2.84596C2.63025 32.2157 2.42827 32.1049 2.3165 31.9203C2.22179 31.7654 2.21993 31.5711 2.31155 31.4144L5.67772 25.3916C5.78878 25.2028 5.99307 25.0885 6.21206 25.0927H10.1142C10.4166 25.0927 10.6617 24.8476 10.6617 24.5452C10.6617 24.2428 10.4166 23.9977 10.1142 23.9977H6.21213C5.59616 23.9937 5.02602 24.3226 4.72124 24.8579L1.35451 30.8806C1.07379 31.3765 1.08027 31.9847 1.37151 32.4745C1.67833 32.996 2.24098 33.3132 2.84596 33.3057H32.3025C32.9073 33.313 33.4698 32.9959 33.7765 32.4745C34.0677 31.9847 34.0742 31.3765 33.7934 30.8806Z" fill-opacity="1" stroke-opacity="1" fill="white" stroke="white" stroke-width="0.5"/>
<path d="M27.9776 26.7356H25.7875C25.6794 26.7358 25.5737 26.7677 25.4836 26.8276L23.8411 27.9227C23.5895 28.0905 23.5216 28.4305 23.6894 28.6821C23.8572 28.9337 24.1972 29.0016 24.4488 28.8338L25.9517 27.8307H27.9776C28.28 27.8307 28.5251 27.5856 28.5251 27.2832C28.5251 26.9807 28.28 26.7356 27.9776 26.7356Z" fill-opacity="1" stroke-opacity="1" fill="white" stroke="white" stroke-width="0.5"/>
<path d="M24.6912 30.5694C24.6912 30.8717 24.9363 31.1168 25.2387 31.1168H29.6188C29.9212 31.1168 30.1663 30.8717 30.1663 30.5694C30.1663 30.267 29.9212 30.0219 29.6188 30.0219H25.2387C24.9363 30.0219 24.6912 30.267 24.6912 30.5694Z" fill-opacity="1" stroke-opacity="1" fill="white" stroke="white" stroke-width="0.5"/>
<path d="M11.0045 28.9257C11.2459 28.926 11.459 28.7682 11.5291 28.5372C11.5992 28.3062 11.5098 28.0566 11.309 27.9227L9.6664 26.8276C9.57619 26.7677 9.47026 26.7357 9.36195 26.7356H7.17189C6.86949 26.7356 6.62439 26.9808 6.62439 27.2831C6.62439 27.5855 6.86956 27.8306 7.17189 27.8306H9.19769L10.7023 28.8336C10.7918 28.8934 10.897 28.9255 11.0045 28.9257Z" fill-opacity="1" stroke-opacity="1" fill="white" stroke="white" stroke-width="0.5"/>
<path d="M5.52907 30.0219C5.22667 30.0219 4.98157 30.267 4.98157 30.5694C4.98157 30.8717 5.22667 31.1168 5.52907 31.1168H9.90925C10.2117 31.1168 10.4568 30.8717 10.4568 30.5694C10.4568 30.267 10.2117 30.0219 9.90925 30.0219H5.52907Z" fill-opacity="1" stroke-opacity="1" fill="white" stroke="white" stroke-width="0.5"/>
</svg>
