<svg width="14" height="7" viewBox="0 0 14 7" fill="none" xmlns="http://www.w3.org/2000/svg">
<mask id="path-2-inside-1" fill="white">
<path d="M6.34753 0.107962L0.110145 6.35919C-0.0367149 6.50637 -0.0367149 6.74243 0.110145 6.88961C0.257005 7.0368 0.492534 7.0368 0.639394 6.88961L6.61077 0.904986L12.5821 6.88961C12.729 7.0368 12.9645 7.0368 13.1114 6.88961C13.1834 6.81741 13.2222 6.72021 13.2222 6.62579C13.2222 6.53137 13.1862 6.43417 13.1114 6.36197L6.87401 0.110738C6.72992 -0.0364476 6.49162 -0.0364467 6.34753 0.107962Z"/>
</mask>
<path d="M6.34753 0.107962L0.110145 6.35919C-0.0367149 6.50637 -0.0367149 6.74243 0.110145 6.88961C0.257005 7.0368 0.492534 7.0368 0.639394 6.88961L6.61077 0.904986L12.5821 6.88961C12.729 7.0368 12.9645 7.0368 13.1114 6.88961C13.1834 6.81741 13.2222 6.72021 13.2222 6.62579C13.2222 6.53137 13.1862 6.43417 13.1114 6.36197L6.87401 0.110738C6.72992 -0.0364476 6.49162 -0.0364467 6.34753 0.107962Z" fill="black"/>
<path d="M6.34753 0.107962L6.89811 0.657324L6.34753 0.107962ZM0.110145 6.35919L-0.440436 5.80982L0.110145 6.35919ZM0.639394 6.88961L1.18998 7.43897L0.639394 6.88961ZM6.61077 0.904986L7.16135 0.355624L6.61077 -0.196179L6.06019 0.355624L6.61077 0.904986ZM12.5821 6.88961L12.0316 7.43897L12.5821 6.88961ZM13.1114 6.36197L12.5608 6.91133L12.566 6.91652L12.5713 6.92162L13.1114 6.36197ZM6.87401 0.110738L6.31819 0.654857L6.32342 0.6601L6.87401 0.110738ZM5.79695 -0.4414L-0.440436 5.80982L0.660726 6.90855L6.89811 0.657324L5.79695 -0.4414ZM-0.440436 5.80982C-0.890225 6.26061 -0.890225 6.98819 -0.440437 7.43897L0.660726 6.34025C0.816795 6.49666 0.816795 6.75213 0.660726 6.90855L-0.440436 5.80982ZM-0.440437 7.43897C0.0103031 7.89071 0.739235 7.89071 1.18998 7.43897L0.0888128 6.34025C0.245833 6.18288 0.503706 6.18288 0.660726 6.34025L-0.440437 7.43897ZM1.18998 7.43897L7.16135 1.45435L6.06019 0.355624L0.0888128 6.34025L1.18998 7.43897ZM6.06019 1.45435L12.0316 7.43897L13.1327 6.34025L7.16135 0.355624L6.06019 1.45435ZM12.0316 7.43897C12.4823 7.89071 13.2112 7.89071 13.662 7.43897L12.5608 6.34025C12.7178 6.18288 12.9757 6.18288 13.1327 6.34025L12.0316 7.43897ZM13.662 7.43897C13.8789 7.22157 14 6.92705 14 6.62579L12.4444 6.62579C12.4444 6.51337 12.488 6.41325 12.5608 6.34025L13.662 7.43897ZM14 6.62579C14 6.33777 13.8903 6.0328 13.6515 5.80231L12.5713 6.92162C12.4821 6.83554 12.4444 6.72497 12.4444 6.62579L14 6.62579ZM13.662 5.8126L7.42459 -0.438623L6.32342 0.6601L12.5608 6.91133L13.662 5.8126ZM7.42979 -0.433355C6.98154 -0.891239 6.24578 -0.89123 5.79695 -0.4414L6.89811 0.657324C6.73745 0.818337 6.47829 0.818344 6.31822 0.654832L7.42979 -0.433355Z" fill="white" mask="url(#path-2-inside-1)"/>
</svg>
