<svg width="42" height="42" viewBox="0 0 42 42" fill="none" xmlns="http://www.w3.org/2000/svg">
<path d="M36.4 10.5C35.6836 10.5021 34.9733 10.6282 34.3 10.8726V9.1C34.2942 4.07661 30.2234 0.00581054 25.2 0H16.8C11.7766 0.00581054 7.70581 4.07661 7.7 9.1V10.8732C7.02666 10.6285 6.31641 10.5024 5.6 10.5C2.51221 10.5 0 12.6981 0 15.4C0 18.1019 2.51221 20.3 5.6 20.3V32.9C5.60581 34.6124 6.84961 36.0695 8.54014 36.3433L9.82153 41.4702C9.8998 41.7812 10.1791 41.9997 10.5 42H14.7C15.0209 42 15.3009 41.7816 15.3792 41.4702L16.6458 36.4H25.3542L26.6208 41.4702C26.6991 41.7816 26.9791 42 27.3 42H31.5C31.8209 42 32.1009 41.7816 32.1791 41.4702L33.4599 36.3433C35.1504 36.0695 36.3942 34.6124 36.4 32.9V20.3C39.4878 20.3 42 18.1019 42 15.4C42 12.6981 39.4878 10.5 36.4 10.5ZM16.8 1.4H25.2C29.4506 1.40513 32.8949 4.84941 32.9 9.1V11.5914C31.6135 12.4356 30.8273 13.8612 30.8 15.4V19.1492C29.6068 17.6644 27.8048 16.8003 25.9 16.8H16.1C14.1952 16.8003 12.3932 17.6644 11.2 19.1492V15.4C11.173 13.8609 10.3869 12.4346 9.1 11.59V9.1C9.10513 4.84941 12.5494 1.40513 16.8 1.4ZM11.2 30.8V23.1C11.2031 20.395 13.395 18.2031 16.1 18.2H25.9C28.605 18.2031 30.7969 20.395 30.8 23.1V30.8H11.2ZM14.1535 40.6H11.0465L9.99653 36.4H15.2035L14.1535 40.6ZM30.9535 40.6H27.8465L26.7965 36.4H32.0035L30.9535 40.6ZM36.4 18.9C36.2018 18.9014 36.0035 18.8877 35.807 18.8593C35.4255 18.8002 35.068 19.0617 35.0085 19.4431C35.0072 19.4749 35.0089 19.5067 35.0126 19.5385C35.0072 19.5586 35.0031 19.5791 35 19.6V32.9C35 34.0597 34.0597 35 32.9 35H9.1C7.94028 35 7 34.0597 7 32.9V19.6C6.99692 19.5791 6.99282 19.5586 6.98735 19.5385C6.99111 19.5067 6.99282 19.4749 6.99146 19.4431C6.93198 19.0617 6.57446 18.8002 6.19302 18.8593C5.99648 18.8877 5.79824 18.9014 5.6 18.9C3.28364 18.9 1.4 17.3298 1.4 15.4C1.4 13.4702 3.28364 11.9 5.6 11.9C6.46099 11.8925 7.30693 12.1232 8.04521 12.5665C9.09351 13.1301 9.7624 14.2102 9.8 15.4V31.5C9.8 31.8866 10.1134 32.2 10.5 32.2H31.5C31.8866 32.2 32.2 31.8866 32.2 31.5V15.4C32.2386 14.2061 32.9113 13.1233 33.9647 12.56C34.7002 12.1205 35.5431 11.8921 36.4 11.9C38.7164 11.9 40.6 13.4702 40.6 15.4C40.6 17.3298 38.7164 18.9 36.4 18.9Z" fill="white"/>
<path d="M29.4002 25.9C29.0136 25.9 28.7002 26.2134 28.7002 26.6V28.7H27.3002C26.9136 28.7 26.6002 29.0134 26.6002 29.4C26.6002 29.7866 26.9136 30.1 27.3002 30.1H29.4002C29.7867 30.1 30.1002 29.7866 30.1002 29.4V26.6C30.1002 26.2134 29.7867 25.9 29.4002 25.9Z" fill="white"/>
<path d="M25.2003 28.6999H23.8003C23.4137 28.6999 23.1003 29.0133 23.1003 29.3999C23.1003 29.7865 23.4137 30.0999 23.8003 30.0999H25.2003C25.5869 30.0999 25.9003 29.7865 25.9003 29.3999C25.9003 29.0133 25.5869 28.6999 25.2003 28.6999Z" fill="white"/>
</svg>
