<svg width="85" height="85" viewBox="0 0 85 85" fill="none" xmlns="http://www.w3.org/2000/svg">
<g filter="url(#filter0_d)">
<circle cx="42.5" cy="42.5" r="22.5" fill="#E21C2E"/>
<circle cx="42.5" cy="42.5" r="22.5" fill="url(#paint0_radial)"/>
<circle cx="42.5" cy="42.5" r="22" stroke="white"/>
</g>
<path d="M54.3457 49.2866L49.2853 45.9119C48.6431 45.4871 47.7823 45.6269 47.3075 46.2331L45.8334 48.1284C45.644 48.3782 45.2996 48.4506 45.0256 48.2984L44.7452 48.1438C43.8157 47.6372 42.6591 47.0064 40.3289 44.6753C37.9986 42.3443 37.3666 41.1868 36.86 40.259L36.7062 39.9786C36.5519 39.7046 36.623 39.3588 36.8728 39.1678L38.7668 37.6942C39.3728 37.2194 39.5128 36.3588 39.0885 35.7165L35.7138 30.656C35.2789 30.0019 34.4064 29.8055 33.7331 30.2102L31.617 31.4813C30.9522 31.8722 30.4644 32.5053 30.2559 33.2478C29.4939 36.0243 30.0672 40.816 37.1258 47.8755C42.7408 53.49 46.9209 54.9999 49.794 54.9999C50.4552 55.0028 51.1139 54.9167 51.7522 54.7441C52.4949 54.536 53.1281 54.0481 53.5187 53.383L54.7911 51.2682C55.1964 50.5948 55.0002 49.7218 54.3457 49.2866ZM54.0732 50.8407L52.8037 52.9568C52.5233 53.4368 52.0679 53.7898 51.533 53.9417C48.9699 54.6454 44.4919 54.0626 37.7153 47.286C30.9387 40.5094 30.3559 36.0318 31.0596 33.4683C31.2118 32.9328 31.5651 32.4768 32.0458 32.1959L34.1619 30.9264C34.454 30.7506 34.8327 30.8358 35.0214 31.1197L36.8546 33.872L38.3932 36.1797C38.5775 36.4583 38.517 36.8318 38.2541 37.038L36.3597 38.5116C35.7831 38.9524 35.6185 39.7501 35.9734 40.3831L36.1239 40.6565C36.6564 41.633 37.3184 42.8479 39.7353 45.2645C42.1522 47.6809 43.3667 48.343 44.3428 48.8754L44.6165 49.0262C45.2495 49.3811 46.0472 49.2165 46.4881 48.64L47.9617 46.7456C48.1679 46.4829 48.5412 46.4224 48.82 46.6064L53.88 49.9812C54.164 50.1697 54.2492 50.5486 54.0732 50.8407Z" fill="white" stroke="white" stroke-width="0.5"/>
<path d="M44.167 34.1684C48.0769 34.1728 51.2454 37.3413 51.2498 41.2512C51.2498 41.4814 51.4363 41.6679 51.6664 41.6679C51.8965 41.6679 52.083 41.4814 52.083 41.2512C52.0782 36.8813 48.5369 33.34 44.167 33.3352C43.9369 33.3352 43.7504 33.5217 43.7504 33.7518C43.7504 33.9819 43.9369 34.1684 44.167 34.1684Z" fill="white" stroke="white" stroke-width="0.5"/>
<path d="M44.167 36.6682C46.6969 36.6712 48.747 38.7213 48.75 41.2512C48.75 41.4813 48.9365 41.6678 49.1666 41.6678C49.3967 41.6678 49.5832 41.4813 49.5832 41.2512C49.5798 38.2613 47.1568 35.8384 44.167 35.835C43.9369 35.835 43.7504 36.0215 43.7504 36.2516C43.7504 36.4817 43.9369 36.6682 44.167 36.6682Z" fill="white" stroke="white" stroke-width="0.5"/>
<path d="M44.167 39.168C45.3169 39.1693 46.2488 40.1012 46.2502 41.2511C46.2502 41.4813 46.4367 41.6678 46.6668 41.6678C46.8969 41.6678 47.0834 41.4813 47.0834 41.2511C47.0816 39.6412 45.7769 38.3365 44.167 38.3347C43.9369 38.3347 43.7504 38.5212 43.7504 38.7513C43.7504 38.9814 43.9369 39.168 44.167 39.168Z" fill="white" stroke="white" stroke-width="0.5"/>
<defs>
<filter id="filter0_d" x="0" y="0" width="85" height="85" filterUnits="userSpaceOnUse" color-interpolation-filters="sRGB">
<feFlood flood-opacity="0" result="BackgroundImageFix"/>
<feColorMatrix in="SourceAlpha" type="matrix" values="0 0 0 0 0 0 0 0 0 0 0 0 0 0 0 0 0 0 127 0"/>
<feOffset/>
<feGaussianBlur stdDeviation="10"/>
<feColorMatrix type="matrix" values="0 0 0 0 0.886275 0 0 0 0 0.109804 0 0 0 0 0.180392 0 0 0 0.6 0"/>
<feBlend mode="normal" in2="BackgroundImageFix" result="effect1_dropShadow"/>
<feBlend mode="normal" in="SourceGraphic" in2="effect1_dropShadow" result="shape"/>
</filter>
<radialGradient id="paint0_radial" cx="0" cy="0" r="1" gradientUnits="userSpaceOnUse" gradientTransform="translate(30.6875 29.5625) rotate(45) scale(31.0243)">
<stop stop-color="#FE394B"/>
<stop offset="1" stop-color="#FE394B" stop-opacity="0"/>
</radialGradient>
</defs>
</svg>
