<svg width="27" height="27" viewBox="0 0 27 27" fill="none" xmlns="http://www.w3.org/2000/svg">
<path d="M25.3457 20.2866L20.2853 16.9119C19.6431 16.4871 18.7823 16.6269 18.3075 17.2331L16.8334 19.1284C16.644 19.3782 16.2996 19.4506 16.0256 19.2984L15.7452 19.1438C14.8157 18.6372 13.6591 18.0064 11.3289 15.6753C8.99864 13.3443 8.3666 12.1868 7.85995 11.259L7.70621 10.9786C7.55187 10.7046 7.62296 10.3588 7.87284 10.1678L9.76684 8.69423C10.3728 8.21942 10.5128 7.35884 10.0885 6.71646L6.71375 1.65601C6.27887 1.00186 5.40638 0.805487 4.73314 1.21019L2.61705 2.48133C1.95216 2.87222 1.46435 3.50528 1.25592 4.24785C0.49392 7.02429 1.06717 11.816 8.1258 18.8755C13.7408 24.49 17.9209 25.9999 20.794 25.9999C21.4552 26.0028 22.1139 25.9167 22.7522 25.7441C23.4949 25.536 24.1281 25.0481 24.5187 24.383L25.7911 22.2682C26.1964 21.5948 26.0002 20.7218 25.3457 20.2866ZM25.0732 21.8407L23.8037 23.9568C23.5233 24.4368 23.0679 24.7898 22.533 24.9417C19.9699 25.6454 15.4919 25.0626 8.71531 18.286C1.93873 11.5094 1.35591 7.03181 2.05962 4.46829C2.21176 3.93278 2.56515 3.47681 3.04577 3.19588L5.16187 1.9264C5.45399 1.75063 5.83267 1.83583 6.02137 2.11969L7.85458 4.87197L9.39323 7.1797C9.5775 7.45834 9.51696 7.8318 9.25408 8.03799L7.35965 9.5116C6.78313 9.95244 6.6185 10.7501 6.97345 11.3831L7.12388 11.6565C7.65636 12.633 8.31837 13.8479 10.7353 16.2645C13.1522 18.6809 14.3667 19.343 15.3428 19.8754L15.6165 20.0262C16.2495 20.3811 17.0472 20.2165 17.4881 19.64L18.9617 17.7456C19.1679 17.4829 19.5412 17.4224 19.82 17.6064L24.88 20.9812C25.164 21.1697 25.2492 21.5486 25.0732 21.8407Z" fill="white" stroke="white" stroke-width="0.5"/>
<path d="M15.167 5.16844C19.0769 5.17279 22.2454 8.34134 22.2498 12.2512C22.2498 12.4814 22.4363 12.6679 22.6664 12.6679C22.8965 12.6679 23.083 12.4814 23.083 12.2512C23.0782 7.88132 19.5369 4.33999 15.167 4.33521C14.9369 4.33521 14.7504 4.52171 14.7504 4.75182C14.7504 4.98193 14.9369 5.16844 15.167 5.16844Z" fill="white" stroke="white" stroke-width="0.5"/>
<path d="M15.167 7.6682C17.6969 7.67118 19.747 9.72131 19.75 12.2512C19.75 12.4813 19.9365 12.6678 20.1666 12.6678C20.3967 12.6678 20.5832 12.4813 20.5832 12.2512C20.5798 9.26129 18.1568 6.83838 15.167 6.83496C14.9369 6.83496 14.7504 7.02147 14.7504 7.25158C14.7504 7.48169 14.9369 7.6682 15.167 7.6682Z" fill="white" stroke="white" stroke-width="0.5"/>
<path d="M15.167 10.168C16.3169 10.1693 17.2488 11.1012 17.2502 12.2511C17.2502 12.4813 17.4367 12.6678 17.6668 12.6678C17.8969 12.6678 18.0834 12.4813 18.0834 12.2511C18.0816 10.6412 16.7769 9.33652 15.167 9.33472C14.9369 9.33472 14.7504 9.52123 14.7504 9.75134C14.7504 9.98144 14.9369 10.168 15.167 10.168Z" fill="white" stroke="white" stroke-width="0.5"/>
</svg>
