<svg width="35" height="35" viewBox="0 0 35 35" fill="none" xmlns="http://www.w3.org/2000/svg">
<path d="M33.1343 26.4552L26.4553 22.0011C25.6078 21.4404 24.4716 21.6249 23.845 22.4251L21.8995 24.9265C21.6495 25.2562 21.195 25.3518 20.8333 25.1509L20.4632 24.9469C19.2364 24.2782 17.7099 23.4457 14.6344 20.369C11.5588 17.2924 10.7247 15.7648 10.056 14.5402L9.85304 14.1701C9.64935 13.8085 9.74317 13.3521 10.073 13.1001L12.5727 11.1551C13.3726 10.5284 13.5573 9.39262 12.9973 8.54478L8.54317 1.86582C7.9692 1.00245 6.81765 0.743274 5.92909 1.27742L3.13619 2.95512C2.25864 3.47102 1.61482 4.30656 1.33973 5.28663C0.334011 8.95108 1.0906 15.2754 10.4068 24.5927C17.8177 32.003 23.3348 33.9958 27.1268 33.9958C27.9995 33.9995 28.8688 33.886 29.7113 33.6582C30.6916 33.3834 31.5272 32.7395 32.0428 31.8617L33.7222 29.0705C34.2571 28.1817 33.9981 27.0295 33.1343 26.4552ZM32.7747 28.5063L31.0991 31.2992C30.7289 31.9327 30.1279 32.3986 29.422 32.5991C26.0391 33.5279 20.1289 32.7586 11.1849 23.8146C2.24092 14.8707 1.4717 8.961 2.40048 5.57757C2.60127 4.87079 3.06769 4.26899 3.70204 3.8982L6.49494 2.22269C6.88048 1.99071 7.38028 2.10315 7.62934 2.47781L10.0489 6.11036L12.0796 9.15619C12.3228 9.52395 12.2429 10.0169 11.896 10.289L9.39565 12.2339C8.63474 12.8157 8.41745 13.8685 8.88592 14.704L9.08447 15.0648C9.78725 16.3537 10.661 17.9572 13.8509 21.1466C17.0408 24.3359 18.6438 25.2097 19.9321 25.9124L20.2934 26.1115C21.1288 26.5799 22.1817 26.3627 22.7635 25.6018L24.7084 23.1014C24.9806 22.7547 25.4733 22.6748 25.8412 22.9178L32.5196 27.3719C32.8945 27.6207 33.007 28.1208 32.7747 28.5063Z" fill="white" stroke="white" stroke-width="0.5"/>
<path d="M19.6994 6.50147C24.8598 6.5072 29.0417 10.6892 29.0475 15.8496C29.0475 16.1533 29.2937 16.3995 29.5974 16.3995C29.9011 16.3995 30.1473 16.1533 30.1473 15.8496C30.1409 10.082 25.467 5.40805 19.6994 5.40173C19.3957 5.40173 19.1495 5.64789 19.1495 5.9516C19.1495 6.25531 19.3957 6.50147 19.6994 6.50147Z" fill="white" stroke="white" stroke-width="0.5"/>
<path d="M19.6994 9.80103C23.0384 9.80496 25.7443 12.5108 25.7482 15.8498C25.7482 16.1535 25.9944 16.3997 26.2981 16.3997C26.6018 16.3997 26.8479 16.1535 26.8479 15.8498C26.8434 11.9036 23.6455 8.7058 19.6994 8.70129C19.3957 8.70129 19.1495 8.94746 19.1495 9.25116C19.1495 9.55487 19.3957 9.80103 19.6994 9.80103Z" fill="white" stroke="white" stroke-width="0.5"/>
<path d="M19.6994 13.1C21.2171 13.1018 22.447 14.3317 22.4489 15.8494C22.4489 16.1532 22.6951 16.3993 22.9987 16.3993C23.3024 16.3993 23.5486 16.1532 23.5486 15.8494C23.5462 13.7246 21.8243 12.0026 19.6994 12.0002C19.3957 12.0002 19.1495 12.2464 19.1495 12.5501C19.1495 12.8538 19.3957 13.1 19.6994 13.1Z" fill="white" stroke="white" stroke-width="0.5"/>
</svg>
