<svg width="41" height="42" viewBox="0 0 41 42" fill="none" xmlns="http://www.w3.org/2000/svg">
<path d="M39.8369 18.4894H0.653071C0.477672 18.4943 0.311141 18.5676 0.189097 18.6937C0.0670527 18.8197 -0.000815739 18.9886 7.40097e-06 19.164V21.4964C0.00369009 21.6213 0.0400953 21.743 0.105583 21.8495C0.171071 21.9559 0.263348 22.0432 0.373187 22.1028L18.4389 29.2865L0.373187 36.4698C0.263348 36.5294 0.171071 36.6168 0.105583 36.7232C0.0400953 36.8296 0.00369009 36.9514 7.40097e-06 37.0763V41.3678C0.000383515 41.4525 0.01769 41.5362 0.0509088 41.6141C0.0841276 41.692 0.132588 41.7625 0.193438 41.8213C0.254288 41.8802 0.326299 41.9263 0.405235 41.957C0.48417 41.9876 0.568435 42.0021 0.653071 41.9997H39.8369C39.9215 42.0021 40.0058 41.9876 40.0847 41.957C40.1636 41.9264 40.2356 41.8803 40.2964 41.8215C40.3573 41.7626 40.4057 41.6922 40.439 41.6144C40.4722 41.5365 40.4896 41.4528 40.49 41.3682V37.0766C40.4863 36.9517 40.4499 36.83 40.3844 36.7236C40.3189 36.6172 40.2266 36.5298 40.1168 36.4702L22.0511 29.2865L40.1168 22.1033C40.2266 22.0437 40.3189 21.9563 40.3844 21.8499C40.4499 21.7435 40.4863 21.6218 40.49 21.4969V19.1645C40.4909 18.9889 40.4231 18.82 40.3011 18.6938C40.179 18.5677 40.0124 18.4943 39.8369 18.4894ZM39.1838 40.6936H1.30614V37.7082H39.1838V40.6936ZM36.4269 36.402H4.06309L20.245 29.9678L36.4269 36.402ZM20.245 28.5622L4.06309 22.1279H36.4271L20.245 28.5622ZM39.1838 20.8218H1.30614V19.7955H39.1838V20.8218Z" fill="white"/>
<path d="M5.73373 14.3844C5.86268 15.2802 6.31016 16.0994 6.99414 16.692C7.67812 17.2845 8.55277 17.6107 9.45773 17.6107C10.3627 17.6107 11.2373 17.2845 11.9213 16.692C12.6053 16.0994 13.0528 15.2802 13.1817 14.3844H27.6954C27.8155 15.3063 28.2726 16.1511 28.9787 16.7558C29.6848 17.3605 30.5899 17.6823 31.5192 17.6591C32.4486 17.6359 33.3365 17.2694 34.0115 16.6302C34.6866 15.9911 35.1011 15.1246 35.175 14.1978H35.2267C36.0445 14.2028 36.8431 13.9491 37.5082 13.4731L37.5187 13.4638C38.1492 13.0057 38.6624 12.4052 39.0167 11.711C39.3709 11.0169 39.556 10.2489 39.5569 9.46957V6.02848C39.5571 5.70994 39.4883 5.39515 39.3552 5.10575C39.222 4.81636 39.0278 4.55923 38.7859 4.35206L34.3231 0.537891C33.9219 0.198082 33.4121 0.0132926 32.8864 0.0170255H21.5628C21.4361 0.0170255 21.3087 0.00918879 21.1813 0.012734C21.107 -0.00424467 21.0298 -0.00424467 20.9554 0.012734C19.8716 0.062329 18.7961 0.227495 17.7473 0.505424C16.9436 0.718345 16.1556 0.986649 15.389 1.30841C13.0325 2.31199 10.8637 3.70883 8.97535 5.43923C7.07013 5.47181 5.18245 5.8095 3.3841 6.43944C2.66601 6.69444 2.04467 7.16583 1.60567 7.78868C1.16666 8.41153 0.931602 9.15518 0.932866 9.9172V13.4098C0.933289 13.5389 0.959262 13.6666 1.00929 13.7856C1.05931 13.9046 1.1324 14.0125 1.22433 14.1031C1.31627 14.1937 1.42523 14.2652 1.54493 14.3135C1.66464 14.3618 1.79272 14.3859 1.92179 14.3844H5.73373ZM31.4244 16.3573C30.9385 16.3574 30.4635 16.2133 30.0595 15.9433C29.6554 15.6734 29.3405 15.2897 29.1546 14.8408C28.9686 14.3918 28.9199 13.8979 29.0147 13.4213C29.1095 12.9447 29.3435 12.5069 29.6871 12.1633C30.0307 11.8197 30.4684 11.5857 30.945 11.4909C31.4216 11.3961 31.9156 11.4447 32.3645 11.6307C32.8134 11.8166 33.1971 12.1315 33.4671 12.5356C33.7371 12.9396 33.8812 13.4146 33.8812 13.9005C33.8804 14.5519 33.6214 15.1763 33.1608 15.6369C32.7002 16.0975 32.0758 16.3566 31.4244 16.3573ZM30.3207 1.32315H32.8864C33.1004 1.31927 33.3087 1.39248 33.4733 1.52943L37.9358 5.3492C37.9898 5.39946 38.0365 5.45691 38.0747 5.51993L30.3207 5.49577V1.32315ZM21.7376 1.32315H29.0146V5.49213L21.7376 5.47188V1.32315ZM21.7376 6.77801L38.2508 6.82382V8.04038H37.0125C36.8393 8.04038 36.6732 8.10919 36.5507 8.23166C36.4283 8.35413 36.3594 8.52024 36.3594 8.69345C36.3594 8.86665 36.4283 9.03276 36.5507 9.15523C36.6732 9.27771 36.8393 9.34651 37.0125 9.34651H38.2508V9.46957C38.2501 10.0422 38.114 10.6065 37.8536 11.1165C37.5932 11.6264 37.2159 12.0676 36.7525 12.404L36.7432 12.4142C36.3006 12.7291 35.7698 12.8962 35.2267 12.8917H35.0467C34.8226 12.0832 34.3346 11.3727 33.6603 10.8734C32.9861 10.3741 32.1642 10.1145 31.3254 10.1359C30.4867 10.1574 29.6792 10.4586 29.0313 10.9918C28.3834 11.5249 27.9324 12.2594 27.7499 13.0783H21.7376V6.77801ZM9.45778 16.3183C8.97184 16.3184 8.49681 16.1743 8.09276 15.9043C7.68872 15.6343 7.37381 15.2506 7.18785 14.8017C7.0019 14.3527 6.95326 13.8587 7.04809 13.3821C7.14291 12.9055 7.37694 12.4677 7.72058 12.1241C8.06421 11.7806 8.50202 11.5466 8.97863 11.4518C9.45524 11.3571 9.94925 11.4058 10.3982 11.5918C10.8471 11.7778 11.2308 12.0928 11.5007 12.4969C11.7706 12.901 11.9146 13.376 11.9145 13.862C11.9137 14.5133 11.6546 15.1376 11.194 15.5981C10.7335 16.0586 10.1091 16.3176 9.45778 16.3183ZM15.8929 2.51313C16.6021 2.21452 17.3312 1.96542 18.0749 1.76761C18.8479 1.56574 19.636 1.42715 20.4315 1.35319V5.46824L10.9807 5.44203C12.4801 4.2509 14.1321 3.26585 15.8929 2.51313ZM2.23899 9.9172C2.23803 9.42446 2.38982 8.94353 2.67347 8.54063C2.95478 8.13813 3.35524 7.83399 3.81848 7.67103C5.55966 7.06061 7.39103 6.74709 9.23611 6.74358L20.4315 6.77465V13.0783H13.1412C12.9644 12.2322 12.5017 11.4728 11.8309 10.9276C11.1601 10.3825 10.3221 10.0849 9.45773 10.0849C8.59336 10.0849 7.75535 10.3825 7.08455 10.9276C6.41376 11.4728 5.95108 12.2322 5.77431 13.0783H2.23899V9.9172Z" fill="white"/>
</svg>
