<svg width="23" height="42" viewBox="0 0 23 42" fill="none" xmlns="http://www.w3.org/2000/svg">
<path d="M17.4461 37.3049C17.6039 37.3049 17.7553 37.2422 17.8669 37.1306C17.9785 37.019 18.0412 36.8676 18.0412 36.7098V36.1681C18.0412 36.0103 17.9785 35.8589 17.8669 35.7473C17.7553 35.6357 17.6039 35.573 17.4461 35.573C17.2883 35.573 17.1369 35.6357 17.0253 35.7473C16.9137 35.8589 16.851 36.0103 16.851 36.1681V36.7098C16.851 36.8676 16.9137 37.019 17.0253 37.1306C17.1369 37.2422 17.2883 37.3049 17.4461 37.3049Z" fill="white"/>
<path d="M5.37285 37.3049C5.53069 37.3049 5.68207 37.2422 5.79368 37.1306C5.90529 37.019 5.96799 36.8676 5.96799 36.7098V36.1681C5.96799 36.0103 5.90529 35.8589 5.79368 35.7473C5.68207 35.6357 5.53069 35.573 5.37285 35.573C5.21501 35.573 5.06363 35.6357 4.95202 35.7473C4.84041 35.8589 4.77771 36.0103 4.77771 36.1681V36.7098C4.77771 36.8676 4.84041 37.019 4.95202 37.1306C5.06363 37.2422 5.21501 37.3049 5.37285 37.3049Z" fill="white"/>
<path d="M10.4494 5.95133H12.5776C12.7355 5.95133 12.8868 5.88863 12.9984 5.77702C13.1101 5.66541 13.1728 5.51403 13.1728 5.35619C13.1728 5.19835 13.1101 5.04697 12.9984 4.93536C12.8868 4.82375 12.7355 4.76105 12.5776 4.76105H10.4494C10.2915 4.76105 10.1402 4.82375 10.0286 4.93536C9.91695 5.04697 9.85425 5.19835 9.85425 5.35619C9.85425 5.51403 9.91695 5.66541 10.0286 5.77702C10.1402 5.88863 10.2915 5.95133 10.4494 5.95133Z" fill="white"/>
<path d="M10.4494 3.99595H12.5776C12.7355 3.99595 12.8868 3.93324 12.9984 3.82163C13.1101 3.71002 13.1728 3.55865 13.1728 3.4008C13.1728 3.24296 13.1101 3.09159 12.9984 2.97998C12.8868 2.86837 12.7355 2.80566 12.5776 2.80566H10.4494C10.2915 2.80566 10.1402 2.86837 10.0286 2.97998C9.91695 3.09159 9.85425 3.24296 9.85425 3.4008C9.85425 3.55865 9.91695 3.71002 10.0286 3.82163C10.1402 3.93324 10.2915 3.99595 10.4494 3.99595Z" fill="white"/>
<path d="M2.66392 30.7828C2.65287 30.7876 2.6425 30.7926 2.63179 30.798C1.89524 31.1713 1.26663 31.7271 0.805927 32.4124C0.345221 33.0977 0.0677815 33.8896 7.36307e-05 34.7126C-0.00128669 34.729 0.0166525 34.7455 0.0166525 34.762V41.3936C0.0166525 41.7223 0.246206 42 0.574894 42H22.2438C22.5725 42 22.802 41.7223 22.802 41.3936V34.762C22.802 34.7455 22.8198 34.729 22.8184 34.7126C22.7488 33.889 22.4695 33.0968 22.0072 32.4116C21.5449 31.7264 20.9149 31.1709 20.1772 30.798C20.1666 30.7926 20.1612 30.7876 20.1502 30.7828L15.5753 28.828V26.0726C16.8259 25.3662 17.8781 24.3557 18.6346 23.1348C19.3911 21.9139 19.8276 20.522 19.9035 19.0877C20.4971 18.8587 20.987 18.4214 21.2814 17.8574C21.5759 17.2934 21.6548 16.6415 21.5035 16.0236C21.4239 15.6883 21.2634 15.3777 21.036 15.1188C20.8086 14.8599 20.5213 14.6607 20.1992 14.5384L20.2569 13.6882H21.3409C21.4188 13.6908 21.4964 13.678 21.5693 13.6505C21.6422 13.623 21.7089 13.5814 21.7657 13.5281C21.8225 13.4747 21.8682 13.4106 21.9001 13.3396C21.932 13.2685 21.9496 13.1918 21.9518 13.1139V10.8184C21.9491 10.6567 21.884 10.5023 21.7702 10.3875C21.6563 10.2726 21.5025 10.2062 21.3409 10.202H20.7265C20.6335 8.18216 19.9441 6.23517 18.7456 4.60673C17.6058 3.05377 16.015 1.88997 14.1898 1.27395L14.2545 0.653299C14.2629 0.570587 14.2539 0.487019 14.228 0.408021C14.202 0.329023 14.1598 0.256362 14.104 0.194754C14.0481 0.133147 13.98 0.0839712 13.9039 0.0504197C13.8278 0.0168683 13.7455 -0.000308643 13.6624 4.19767e-06H9.15632C9.07297 -1.01604e-06 8.99056 0.0174986 8.91441 0.0513699C8.83826 0.0852412 8.77007 0.134729 8.71427 0.196628C8.65846 0.258527 8.61627 0.331458 8.59044 0.410697C8.56461 0.489936 8.55571 0.573717 8.56432 0.656615L8.62894 1.27973C6.80272 1.89549 5.21141 3.06056 4.07279 4.61549C2.87715 6.24223 2.18846 8.1858 2.0931 10.2024H1.47781C1.31616 10.2066 1.16236 10.2731 1.04853 10.3879C0.934691 10.5028 0.869605 10.6571 0.866854 10.8188V13.1144C0.869128 13.1922 0.886753 13.2688 0.918719 13.3399C0.950684 13.4109 0.996362 13.4749 1.05313 13.5282C1.10989 13.5815 1.17663 13.6231 1.24951 13.6506C1.32239 13.678 1.39997 13.6908 1.47781 13.6882H2.52186L2.57967 14.5362C2.25652 14.6568 1.96804 14.8551 1.73969 15.1136C1.51134 15.3721 1.35015 15.6828 1.27036 16.0184C1.22057 16.2233 1.19542 16.4334 1.19546 16.6442C1.19439 17.1738 1.35445 17.6912 1.65438 18.1277C1.95431 18.5642 2.37992 18.8991 2.87469 19.088C3.02892 22.0996 4.77778 24.7046 7.24336 26.0957V28.828L2.66392 30.7828ZM5.03284 31.0579L5.62798 30.7952V34.0931H5.03284V31.0579ZM3.84256 34.0931H3.55442C3.22574 34.0931 2.99236 34.3949 2.99236 34.7236V40.8097H1.20693V34.7878C1.25321 34.1746 1.45713 33.5838 1.79892 33.0727C2.14071 32.5615 2.60877 32.1473 3.15772 31.8703L3.84256 31.566V34.0931ZM18.9761 31.566L19.661 31.8703C20.2099 32.1473 20.678 32.5615 21.0198 33.0727C21.3616 33.5838 21.5655 34.1746 21.6118 34.7878V40.8097H19.8263V34.7236C19.8263 34.3949 19.593 34.0931 19.2643 34.0931H18.9761V31.566ZM18.6361 40.8097H4.18264V35.2834H18.6361V40.8097ZM17.1907 30.7954L17.7859 31.058V34.0931H17.1907V30.7954ZM8.26361 2.70067C8.6366 2.52433 9.02591 2.38481 9.426 2.28407C9.56291 2.24752 9.68228 2.16333 9.76265 2.04663C9.84303 1.92993 9.87912 1.78838 9.86445 1.64744L9.81641 1.19029H13.0023L12.9549 1.64744C12.94 1.78832 12.9759 1.9299 13.0562 2.04663C13.1365 2.16337 13.2558 2.24758 13.3927 2.28407C13.7927 2.38478 14.182 2.52413 14.5551 2.70016V3.50895C14.5554 4.47473 14.2642 5.41812 13.7196 6.21573C13.1751 7.01333 12.4025 7.62802 11.5029 7.9794C10.5562 7.65636 9.73462 7.04476 9.15359 6.23058C8.57255 5.4164 8.2613 4.44059 8.26361 3.44034V2.70067ZM5.03131 5.32286C5.59826 4.56193 6.28845 3.90114 7.07332 3.36782V3.44034C7.0708 4.70502 7.46978 5.93787 8.21279 6.96127C8.95579 7.98468 10.0045 8.74583 11.2078 9.13508L11.3299 9.17512C11.3894 9.19455 11.4515 9.20445 11.514 9.20445C11.5794 9.20445 11.6444 9.1935 11.7062 9.17206C12.8852 8.76607 13.9081 8.0022 14.6322 6.98701C15.3563 5.97181 15.7454 4.75592 15.7454 3.50895V3.36561C16.53 3.89736 17.2203 4.55647 17.7877 5.31572C18.8353 6.73876 19.4426 8.43776 19.5344 10.2024H3.28525C3.37942 8.44052 3.9863 6.74452 5.03131 5.32286ZM2.05714 12.498V11.3927H20.7616V12.498H17.7659C17.6546 12.498 17.5255 12.4221 17.394 12.4469C17.3398 12.4572 17.2891 12.498 17.242 12.498H2.05714ZM19.0638 13.6882L18.9812 14.8971C18.9776 14.9538 18.9531 15.0071 18.9125 15.0469L18.7371 15.2131L18.4715 14.4071C18.3937 14.1735 18.3236 13.9433 18.2611 13.6882H19.0638ZM4.31102 13.6882L4.19964 15.0886L3.82657 14.9023C3.8171 14.8959 3.80923 14.8875 3.80357 14.8775C3.79791 14.8676 3.79461 14.8565 3.79393 14.8451L3.71503 13.6882H4.31102ZM4.0126 18.6472V18.6352C4.01715 18.4972 3.97206 18.3621 3.88552 18.2545C3.79897 18.1468 3.67671 18.0738 3.54091 18.0486C3.2122 17.9906 2.91469 17.8179 2.70122 17.5613C2.48776 17.3047 2.37215 16.9807 2.37494 16.6469C2.37659 16.5322 2.39203 16.418 2.42094 16.3069C2.45177 16.1724 2.51329 16.0468 2.60067 15.94C2.68806 15.8332 2.79895 15.7481 2.92468 15.6912C3.02603 15.8039 3.14703 15.8972 3.28177 15.9665L4.2322 16.4541C4.34319 16.5113 4.46661 16.5402 4.59146 16.5381C4.7163 16.5361 4.8387 16.5032 4.94773 16.4423C5.05726 16.3796 5.14977 16.291 5.21719 16.1843C5.28462 16.0776 5.32492 15.956 5.33458 15.8302L5.50462 13.6884H17.0361C17.1139 14.0603 17.2162 14.4267 17.3421 14.7852L17.8208 16.2262C17.8602 16.3472 17.9295 16.4563 18.0222 16.5435C18.1149 16.6306 18.2282 16.6929 18.3514 16.7247C18.4746 16.7565 18.6039 16.7567 18.7272 16.7253C18.8505 16.6938 18.9639 16.6318 19.0569 16.5449L19.7247 15.9219C19.7905 15.8605 19.8503 15.7929 19.9032 15.7201C20.0147 15.7806 20.1119 15.8643 20.1885 15.9654C20.265 16.0666 20.3191 16.183 20.347 16.3067C20.3933 16.4958 20.4003 16.6924 20.3676 16.8844C20.335 17.0764 20.2633 17.2596 20.1571 17.4228C20.0509 17.586 19.9124 17.7257 19.7502 17.8333C19.5879 17.941 19.4053 18.0142 19.2136 18.0485C19.0758 18.0728 18.9509 18.1449 18.8609 18.252C18.7708 18.3592 18.7213 18.4946 18.7211 18.6345V18.6472C18.7211 22.6919 15.4115 25.9825 11.3674 25.9825C7.32337 25.9825 4.0126 22.6919 4.0126 18.6472ZM14.3851 26.6297V28.8563C13.4451 29.2606 12.4326 29.469 11.4094 29.469C10.3861 29.469 9.37364 29.2606 8.43365 28.8563V26.6445C10.3549 27.3539 12.4673 27.3487 14.3851 26.6297ZM7.79072 29.8808C8.92731 30.3937 10.16 30.6589 11.4069 30.6589C12.6538 30.6589 13.8865 30.3937 15.023 29.8808L16.0008 30.2873V34.0931H6.81826V30.2873L7.79072 29.8808Z" fill="white"/>
</svg>
