<svg width="37" height="37" viewBox="0 0 37 37" fill="none" xmlns="http://www.w3.org/2000/svg">
<path d="M18.5 1C8.8505 1 1 8.8505 1 18.5C1 28.1495 8.8505 36 18.5 36C28.1495 36 36 28.1495 36 18.5C36 8.8505 28.1495 1 18.5 1ZM18.5 34.8333C9.49392 34.8333 2.16667 27.5061 2.16667 18.5C2.16667 9.49392 9.49392 2.16667 18.5 2.16667C27.5061 2.16667 34.8333 9.49392 34.8333 18.5C34.8333 27.5061 27.5061 34.8333 18.5 34.8333Z" fill="white" stroke="white" stroke-width="0.5"/>
<path d="M19.0839 16.1783V10.2622C19.0839 9.93958 18.8226 9.67883 18.5006 9.67883C18.1786 9.67883 17.9173 9.93958 17.9173 10.2622V16.1783C17.1012 16.3907 16.4624 17.0294 16.2501 17.8455H12.0839C11.7619 17.8455 11.5006 18.1062 11.5006 18.4288C11.5006 18.7514 11.7619 19.0122 12.0839 19.0122H16.2501C16.5109 20.0155 17.4168 20.7622 18.5006 20.7622C19.7874 20.7622 20.8339 19.7157 20.8339 18.4288C20.8339 17.3444 20.0873 16.4391 19.0839 16.1783ZM18.5006 19.5955C17.8572 19.5955 17.3339 19.0723 17.3339 18.4288C17.3339 17.7854 17.8572 17.2622 18.5006 17.2622C19.144 17.2622 19.6673 17.7854 19.6673 18.4288C19.6673 19.0723 19.144 19.5955 18.5006 19.5955Z" fill="white" stroke="white" stroke-width="0.5"/>
<path d="M18.4995 6.76294C18.8215 6.76294 19.0828 6.50219 19.0828 6.17961V5.59627C19.0828 5.27369 18.8215 5.01294 18.4995 5.01294C18.1775 5.01294 17.9161 5.27369 17.9161 5.59627V6.17961C17.9161 6.50219 18.1775 6.76294 18.4995 6.76294Z" fill="white" stroke="white" stroke-width="0.5"/>
<path d="M18.4995 30.0962C18.1775 30.0962 17.9161 30.3569 17.9161 30.6795V31.2629C17.9161 31.5854 18.1775 31.8462 18.4995 31.8462C18.8215 31.8462 19.0828 31.5854 19.0828 31.2629V30.6795C19.0828 30.3569 18.8215 30.0962 18.4995 30.0962Z" fill="white" stroke="white" stroke-width="0.5"/>
<path d="M31.3339 17.8459H30.7506C30.4286 17.8459 30.1672 18.1067 30.1672 18.4293C30.1672 18.7519 30.4286 19.0126 30.7506 19.0126H31.3339C31.6559 19.0126 31.9172 18.7519 31.9172 18.4293C31.9172 18.1067 31.6559 17.8459 31.3339 17.8459Z" fill="white" stroke="white" stroke-width="0.5"/>
<path d="M6.25065 17.8459H5.66732C5.34532 17.8459 5.08398 18.1067 5.08398 18.4293C5.08398 18.7519 5.34532 19.0126 5.66732 19.0126H6.25065C6.57265 19.0126 6.83398 18.7519 6.83398 18.4293C6.83398 18.1067 6.57265 17.8459 6.25065 17.8459Z" fill="white" stroke="white" stroke-width="0.5"/>
<path d="M27.1618 8.9416L26.7494 9.35401C26.5213 9.5821 26.5213 9.95076 26.7494 10.1788C26.8632 10.2926 27.0125 10.3498 27.1618 10.3498C27.3112 10.3498 27.4605 10.2926 27.5743 10.1788L27.9867 9.76643C28.2148 9.53835 28.2148 9.16968 27.9867 8.9416C27.7586 8.71351 27.3899 8.7141 27.1618 8.9416Z" fill="white" stroke="white" stroke-width="0.5"/>
<path d="M9.4254 26.6782L9.01298 27.0906C8.7849 27.3187 8.7849 27.6873 9.01298 27.9154C9.12673 28.0292 9.27606 28.0863 9.4254 28.0863C9.57473 28.0863 9.72406 28.0292 9.83781 27.9154L10.2502 27.503C10.4783 27.2749 10.4783 26.9063 10.2502 26.6782C10.0221 26.4501 9.6529 26.4507 9.4254 26.6782Z" fill="white" stroke="white" stroke-width="0.5"/>
<path d="M27.5743 26.6784C27.3462 26.4503 26.9775 26.4503 26.7494 26.6784C26.5213 26.9065 26.5213 27.2751 26.7494 27.5032L27.1618 27.9156C27.2756 28.0294 27.4249 28.0866 27.5743 28.0866C27.7236 28.0866 27.8729 28.0294 27.9867 27.9156C28.2148 27.6876 28.2148 27.3189 27.9867 27.0908L27.5743 26.6784Z" fill="white" stroke="white" stroke-width="0.5"/>
<path d="M9.83781 8.94181C9.60973 8.71373 9.24106 8.71373 9.01298 8.94181C8.7849 9.1699 8.7849 9.53856 9.01298 9.76665L9.4254 10.1791C9.53915 10.2928 9.68848 10.35 9.83781 10.35C9.98715 10.35 10.1365 10.2928 10.2502 10.1791C10.4783 9.95098 10.4783 9.58231 10.2502 9.35423L9.83781 8.94181Z" fill="white" stroke="white" stroke-width="0.5"/>
</svg>
