<svg width="42" height="36" viewBox="0 0 42 36" fill="none" xmlns="http://www.w3.org/2000/svg">
<path d="M21.1843 17.1826C24.2732 17.1826 26.7862 14.647 26.7862 11.5302C26.7862 8.41339 24.2734 5.87796 21.1843 5.87796C18.0953 5.87796 15.5825 8.41357 15.5825 11.5302C15.5825 14.6468 18.0955 17.1826 21.1843 17.1826ZM21.1843 7.13437C23.5805 7.13437 25.5298 9.1063 25.5298 11.5302C25.5298 13.9541 23.5804 15.9262 21.1843 15.9262C18.7883 15.9262 16.8389 13.9541 16.8389 11.5302C16.8389 9.10621 18.7882 7.13437 21.1843 7.13437Z" fill="white"/>
<path d="M35.4881 20.6562C35.4376 20.5477 35.3573 20.4558 35.2565 20.3913C35.1557 20.3268 35.0385 20.2923 34.9189 20.292H30.533C31.4867 19.1859 32.2396 17.9216 32.7578 16.5562C33.3513 14.9836 33.602 13.3023 33.4931 11.625C33.2839 8.55435 31.9585 5.66638 29.7667 3.50571C27.475 1.25868 24.3935 0 21.184 0C17.9745 0 14.893 1.25868 12.6013 3.50571C10.4096 5.66671 9.08433 8.55491 8.87534 11.6257C8.76632 13.3028 9.01698 14.9838 9.61052 16.5562C10.1286 17.9216 10.8815 19.1859 11.8351 20.292H7.08047C6.96079 20.2923 6.84367 20.3268 6.74285 20.3913C6.64204 20.4558 6.56169 20.5477 6.51123 20.6562L0.0585938 34.484C0.0140371 34.5792 -0.00564305 34.6842 0.00139454 34.7891C0.00843214 34.894 0.0419574 34.9953 0.0988343 35.0837C0.155711 35.1721 0.234081 35.2447 0.326613 35.2945C0.419145 35.3444 0.522815 35.37 0.627926 35.3689H41.3714C41.4768 35.37 41.5807 35.3443 41.6734 35.2942C41.7661 35.2442 41.8446 35.1714 41.9015 35.0827C41.9584 34.994 41.9918 34.8924 41.9987 34.7872C42.0055 34.6821 41.9856 34.5769 41.9407 34.4816L35.4881 20.6562ZM34.5188 21.5484L37.5745 28.0997H23.1213L29.3705 21.5484H34.5188ZM10.7883 16.12C10.2569 14.7139 10.0319 13.2106 10.1285 11.7105C10.317 8.94572 11.5105 6.34544 13.484 4.40001C15.5405 2.38512 18.3049 1.25661 21.184 1.25661C24.0631 1.25661 26.8274 2.38512 28.884 4.40001C30.8575 6.34557 32.0511 8.94597 32.2396 11.7109C32.3362 13.211 32.1112 14.7145 31.5798 16.1207C31.058 17.5274 30.203 18.8578 29.0384 20.0783L28.8328 20.292H28.8073V20.309L21.1686 28.3097L13.551 20.331V20.292H13.5353L13.3297 20.0782C12.1651 18.8578 11.3099 17.5267 10.7883 16.12ZM19.2469 28.0997H12.9127L14.1896 22.8005L19.2469 28.0997ZM7.48055 21.5484H12.9976L13.1576 21.7177L11.6202 28.0997H4.42488L7.48055 21.5484ZM1.61429 34.1125L3.83849 29.3561H9.20739L7.78478 34.1125H1.61429ZM9.09638 34.1125L10.5191 29.3561H20.4459L20.7296 29.6533C20.7883 29.7148 20.8588 29.7637 20.9369 29.7972C21.015 29.8306 21.0991 29.8478 21.1841 29.8478C21.2691 29.8478 21.3531 29.8306 21.4312 29.7972C21.5094 29.7637 21.5799 29.7148 21.6385 29.6533L21.9221 29.3561H27.5315L28.9542 34.1125H9.09638ZM30.2655 34.1125L28.8432 29.3561H38.1608L40.385 34.1125H30.2655Z" fill="white"/>
</svg>
