<svg width="30" height="53" viewBox="0 0 30 53" fill="none" xmlns="http://www.w3.org/2000/svg">
<path d="M0.0129694 38.3285C0.0129694 46.3483 6.51395 52.8493 14.5337 52.8493C22.5535 52.8493 29.0545 46.3483 29.0545 38.3285C29.0545 30.3086 22.5535 23.8078 14.5337 23.8078C12.8855 23.8078 11.3078 24.0951 9.83084 24.6014C13.0986 5.85985 27.7135 -6.22635 14.1655 3.72083C-0.857046 14.7512 -0.00311973 37.8847 0.0136898 38.3087C0.0136898 38.3153 0.0129694 38.3212 0.0129694 38.3285Z" fill="black"/>
<path d="M0.0129694 38.3285C0.0129694 46.3483 6.51395 52.8493 14.5337 52.8493C22.5535 52.8493 29.0545 46.3483 29.0545 38.3285C29.0545 30.3086 22.5535 23.8078 14.5337 23.8078C12.8855 23.8078 11.3078 24.0951 9.83084 24.6014C13.0986 5.85985 27.7135 -6.22635 14.1655 3.72083C-0.857046 14.7512 -0.00311973 37.8847 0.0136898 38.3087C0.0136898 38.3153 0.0129694 38.3212 0.0129694 38.3285Z" fill="#E21C2E"/>
<path d="M0.0129694 38.3285C0.0129694 46.3483 6.51395 52.8493 14.5337 52.8493C22.5535 52.8493 29.0545 46.3483 29.0545 38.3285C29.0545 30.3086 22.5535 23.8078 14.5337 23.8078C12.8855 23.8078 11.3078 24.0951 9.83084 24.6014C13.0986 5.85985 27.7135 -6.22635 14.1655 3.72083C-0.857046 14.7512 -0.00311973 37.8847 0.0136898 38.3087C0.0136898 38.3153 0.0129694 38.3212 0.0129694 38.3285Z" fill="url(#paint0_radial)"/>
<defs>
<radialGradient id="paint0_radial" cx="0" cy="0" r="1" gradientUnits="userSpaceOnUse" gradientTransform="translate(6.90044 11.3493) rotate(61.1305) scale(29.3363 24.8076)">
<stop stop-color="#FE394B"/>
<stop offset="1" stop-color="#FE394B" stop-opacity="0"/>
</radialGradient>
</defs>
</svg>
